<svg width="47" height="24" viewBox="0 0 47 24" fill="none" xmlns="http://www.w3.org/2000/svg"
    role="img" aria-labelledby="menuTitle">
    <title id="menuTitle">Menu</title>
    <g id="Menu">
        <path
            d="M1.26 19V6.04H2.475L7.569 16.939L12.636 6.04H13.869V18.991H12.609V8.992L7.992 19H7.137L2.529 8.992V19H1.26ZM20.5078 19.27C19.5598 19.27 18.7378 19.06 18.0418 18.64C17.3518 18.22 16.8148 17.629 16.4308 16.867C16.0468 16.105 15.8548 15.211 15.8548 14.185C15.8548 13.123 16.0438 12.205 16.4218 11.431C16.7998 10.657 17.3308 10.06 18.0148 9.64C18.7048 9.22 19.5178 9.01 20.4538 9.01C21.4138 9.01 22.2328 9.232 22.9108 9.676C23.5888 10.114 24.1018 10.744 24.4498 11.566C24.7978 12.388 24.9568 13.369 24.9268 14.509H23.5768V14.041C23.5528 12.781 23.2798 11.83 22.7578 11.188C22.2418 10.546 21.4858 10.225 20.4898 10.225C19.4458 10.225 18.6448 10.564 18.0868 11.242C17.5348 11.92 17.2588 12.886 17.2588 14.14C17.2588 15.364 17.5348 16.315 18.0868 16.993C18.6448 17.665 19.4338 18.001 20.4538 18.001C21.1498 18.001 21.7558 17.842 22.2718 17.524C22.7938 17.2 23.2048 16.735 23.5048 16.129L24.7378 16.606C24.3538 17.452 23.7868 18.109 23.0368 18.577C22.2928 19.039 21.4498 19.27 20.5078 19.27ZM16.7908 14.509V13.402H24.2158V14.509H16.7908ZM33.6804 19V14.041C33.6804 13.501 33.6294 13.006 33.5274 12.556C33.4254 12.1 33.2604 11.704 33.0324 11.368C32.8104 11.026 32.5194 10.762 32.1594 10.576C31.8054 10.39 31.3734 10.297 30.8634 10.297C30.3954 10.297 29.9814 10.378 29.6214 10.54C29.2674 10.702 28.9674 10.936 28.7214 11.242C28.4814 11.542 28.2984 11.908 28.1724 12.34C28.0464 12.772 27.9834 13.264 27.9834 13.816L27.0474 13.609C27.0474 12.613 27.2214 11.776 27.5694 11.098C27.9174 10.42 28.3974 9.907 29.0094 9.559C29.6214 9.211 30.3234 9.037 31.1154 9.037C31.6974 9.037 32.2044 9.127 32.6364 9.307C33.0744 9.487 33.4434 9.73 33.7434 10.036C34.0494 10.342 34.2954 10.693 34.4814 11.089C34.6674 11.479 34.8024 11.896 34.8864 12.34C34.9704 12.778 35.0124 13.216 35.0124 13.654V19H33.6804ZM26.6514 19V9.28H27.8484V11.674H27.9834V19H26.6514ZM41.0649 19.243C40.4829 19.243 39.9729 19.153 39.5349 18.973C39.1029 18.793 38.7339 18.55 38.4279 18.244C38.1279 17.938 37.8849 17.59 37.6989 17.2C37.5129 16.804 37.3779 16.387 37.2939 15.949C37.2099 15.505 37.1679 15.064 37.1679 14.626V9.28H38.4999V14.239C38.4999 14.773 38.5509 15.268 38.6529 15.724C38.7549 16.18 38.9169 16.579 39.1389 16.921C39.3669 17.257 39.6579 17.518 40.0119 17.704C40.3719 17.89 40.8069 17.983 41.3169 17.983C41.7849 17.983 42.1959 17.902 42.5499 17.74C42.9099 17.578 43.2099 17.347 43.4499 17.047C43.6959 16.741 43.8819 16.372 44.0079 15.94C44.1339 15.502 44.1969 15.01 44.1969 14.464L45.1329 14.671C45.1329 15.667 44.9589 16.504 44.6109 17.182C44.2629 17.86 43.7829 18.373 43.1709 18.721C42.5589 19.069 41.8569 19.243 41.0649 19.243ZM44.3319 19V16.606H44.1969V9.28H45.5199V19H44.3319Z"
            fill="#262626" />
        <path d="M0 20.125H46.7799V20.575H0V20.125Z" fill="#262626" />
    </g>
</svg>